# Wavefront OBJ exported by MilkShape 3D

mtllib _butterfly.mtl

v -4.093705 2.213334 0.872787
v -4.593705 2.573334 -7.627213
v -4.968705 2.213334 -13.046329
v 7.642166 0.880001 -14.110294
v 11.933823 0.880005 -19.721407
v 17.822723 0.880005 -25.943630
v 23.711609 0.880006 -31.721405
v 30.156050 0.880006 -37.388077
v 37.044937 0.880006 -43.721405
v 43.267151 0.880006 -49.165855
v 49.933819 0.880007 -53.943626
v 59.600475 0.880011 -60.276966
v 68.267151 0.880011 -65.276970
v 76.378265 0.880012 -68.943634
v 85.156036 0.880012 -72.499199
v 93.378265 0.880016 -74.943642
v 100.378265 0.880020 -74.943642
v 105.267181 0.880021 -73.721420
v 108.600525 0.880021 -70.499199
v 110.711609 0.880021 -66.165863
v 110.600525 0.880021 -61.610302
v 110.267181 0.880021 -58.388081
v 107.822723 0.880021 -53.832527
v 107.489410 0.880021 -52.276970
v 105.933838 0.880021 -50.721413
v 103.044952 0.880020 -47.388077
v 101.378265 0.880020 -43.721413
v 99.044937 0.880020 -40.276970
v 96.711609 0.880020 -37.165855
v 96.267166 0.880020 -33.054749
v 93.933823 0.880016 -28.832520
v 93.711609 0.880016 -27.388081
v 92.600494 0.880016 -24.943632
v 92.267166 0.880016 -21.388079
v 91.378265 0.880016 -17.276968
v 90.600494 0.880012 -14.610302
v 90.489380 0.880012 -12.388079
v 89.044937 0.880012 -9.388079
v 88.378265 0.880012 -6.388079
v 86.378265 0.880012 -4.054745
v 83.044937 0.880012 -2.165856
v 76.822723 0.880012 -1.388079
v 68.267166 0.880011 -1.499190
v 61.600491 0.880011 -1.943634
v 53.156048 0.880011 -1.832523
v 45.267166 0.880007 -2.276966
v 38.822723 0.880006 -1.943633
v 31.489386 0.880006 -2.165855
v 28.156052 0.880006 -2.610300
v 22.711609 0.880006 -4.054744
v 16.489395 0.880005 -5.054744
v 12.600494 0.880005 -5.165855
v 58.822720 0.880011 0.500811
v 65.489395 0.880011 3.500811
v 72.044937 0.880011 7.834144
v 77.600494 0.880012 11.834144
v 81.933838 0.880012 16.167477
v 84.489380 0.880012 21.611921
v 86.600494 0.880012 26.945257
v 87.044937 0.880012 30.056368
v 85.600494 0.880012 33.056366
v 84.600494 0.880012 36.056366
v 84.044937 0.880012 40.278587
v 83.822723 0.880012 42.945259
v 82.156052 0.880012 45.167480
v 80.933838 0.880012 46.389702
v 79.933838 0.880012 48.278587
v 78.600494 0.880012 50.056366
v 77.378281 0.880012 52.278587
v 76.711609 0.880012 54.723030
v 75.378281 0.880012 55.500809
v 73.711609 0.880012 55.945259
v 70.933838 0.880011 57.167480
v 68.600494 0.880011 58.500809
v 66.933838 0.880011 59.723030
v 64.600494 0.880011 62.056366
v 62.044933 0.880011 64.167473
v 60.044933 0.880011 64.167473
v 56.711605 0.880011 66.167473
v 54.822704 0.880011 66.945251
v 52.822704 0.880011 68.278580
v 49.156048 0.880007 68.389694
v 47.711605 0.880007 68.611916
v 47.156048 0.880007 69.611916
v 44.933823 0.880006 69.278580
v 43.600494 0.880006 70.056358
v 40.822708 0.880006 70.278580
v 36.489388 0.880006 70.056358
v 32.600494 0.880006 69.834137
v 28.822721 0.880006 68.723022
v 25.822723 0.880006 66.945251
v 22.933838 0.880006 62.723038
v 20.267166 0.880005 56.278587
v 17.933838 0.880005 50.389702
v 15.600494 0.880005 44.834145
v 12.600494 0.880005 38.167480
v 9.822723 0.880005 32.167480
v 7.489380 0.880001 26.500814
v 6.489380 0.880001 24.278593
v 6.544937 0.880001 18.709150
v 7.156052 0.880001 13.056371
v 7.808838 0.880001 8.514704
v 8.128281 0.880001 2.681371
v 8.600494 0.880001 -0.165852
v 10.933838 0.880005 -3.054740
v 63.461605 0.880011 -32.832520
v 41.461609 0.880006 27.417482
v -5.892063 0.880000 -13.311723
v -11.287882 0.880000 -18.564287
v -17.482376 0.880000 -24.678150
v -23.852421 0.880000 -29.920704
v -30.766228 0.880000 -35.004135
v -38.180904 0.880000 -40.712959
v -44.853966 0.880000 -45.594391
v -53.286652 0.880000 -51.272942
v -60.968517 0.880000 -55.864662
v -70.287979 0.880000 -60.215309
v -78.562805 0.880000 -63.786125
v -87.492065 0.880000 -66.813065
v -96.646057 0.880000 -69.156616
v -107.744446 0.880000 -69.296501
v -114.758240 0.880000 -66.402863
v -117.673035 0.880000 -60.652420
v -116.648438 0.880000 -55.151550
v -116.265717 0.880000 -52.122986
v -114.027817 0.880000 -48.317070
v -110.695633 0.880000 -44.366920
v -109.352982 0.880000 -42.971313
v -107.667786 0.880000 -41.557274
v -105.374359 0.880000 -38.988396
v -103.394424 0.880000 -35.480942
v -100.269775 0.880000 -31.627968
v -98.674164 0.880000 -28.982033
v -97.623108 0.880000 -24.800343
v -95.555649 0.880000 -20.547539
v -95.208405 0.880000 -19.127945
v -94.013489 0.880000 -17.039646
v -93.371521 0.880000 -13.526675
v -92.002686 0.880000 -9.633677
v -90.995453 0.880000 -7.044953
v -90.191086 0.880000 -4.340865
v -88.490677 0.880000 -1.478171
v -87.065063 0.880000 0.952307
v -83.869308 0.880000 3.102451
v -80.384064 0.880000 4.693635
v -74.117722 0.880000 4.926151
v -65.604385 0.880000 4.069797
v -59.001835 0.880000 3.046006
v -50.579834 0.880000 2.420711
v -42.759720 0.880000 1.290396
v -36.310753 0.880000 1.060792
v -29.024675 0.880000 0.200273
v -25.742756 0.880000 -0.533000
v -20.444927 0.880000 -2.446463
v -14.333530 0.880000 -3.984959
v -10.469120 0.880000 -4.434588
v -56.896599 0.880000 4.739050
v -63.276428 0.880000 8.308674
v -69.429337 0.880000 13.196870
v -74.615158 0.880000 17.665846
v -78.554321 0.880000 22.360369
v -80.625610 0.880000 28.006828
v -82.263870 0.880000 33.503853
v -81.560471 0.880000 37.141876
v -79.860077 0.880000 40.004570
v -78.602402 0.880000 42.906006
v -77.680969 0.880000 47.063728
v -77.227188 0.880000 49.700882
v -75.373138 0.880000 51.769394
v -74.049103 0.880000 52.880447
v -72.888260 0.880000 54.674988
v -71.405045 0.880000 56.329796
v -69.993790 0.880000 58.437035
v -69.116608 0.880000 60.814079
v -67.720581 0.880000 61.472687
v -66.021515 0.880000 61.770195
v -63.147797 0.880000 62.745644
v -60.707115 0.880000 63.870544
v -58.940300 0.880000 64.942863
v -56.412460 0.880000 67.063965
v -53.682625 0.880000 68.944283
v -51.690235 0.880000 68.769989
v -48.195286 0.880000 70.471848
v -46.245789 0.880000 71.082039
v -44.137192 0.880000 72.235970
v -40.474796 0.880000 72.027122
v -39.016479 0.880000 72.122597
v -38.375885 0.880000 73.070366
v -36.191162 0.880000 72.544617
v -34.795116 0.880000 73.203239
v -32.008533 0.880000 73.182510
v -27.711063 0.880000 72.583458
v -23.856339 0.880000 72.023132
v -20.189785 0.880000 70.586998
v -17.356144 0.880000 68.554520
v -14.846230 0.880000 64.096581
v -12.751381 0.880000 57.444260
v -10.940186 0.880000 51.374413
v -9.099926 0.880000 45.636627
v -6.692360 0.880000 38.733864
v -4.448101 0.880000 32.514595
v -2.617527 0.880000 26.666124
v -1.815010 0.880000 24.365202
v -1.846771 0.880000 18.902739
v -3.457211 0.880000 13.243788
v -3.642582 0.880000 8.575508
v -3.553963 0.880000 3.214049
v -6.048569 0.880000 0.197768
v -8.624805 0.880000 -2.476768
v -63.548008 0.880000 -27.563145
v -36.380608 0.880000 30.540184
v 2.263438 3.813333 -20.320072
v 3.638438 0.880000 -20.170073
v 5.906295 0.880000 -17.502214
v 5.406295 0.880000 -15.127214
v 6.906295 2.213334 -13.377213
v 7.281295 2.573334 -6.877214
v 7.781295 2.213334 1.747786
v 7.281295 0.880000 3.622786
v 6.781295 0.880000 11.747786
v 6.156295 0.880000 19.247786
v 5.906295 0.880000 26.997786
v 6.406295 0.880000 31.247786
v 5.656295 0.880000 34.872787
v 5.531295 0.880000 38.622787
v 5.031295 0.880000 40.497787
v 5.031295 0.880000 44.372787
v 5.531295 0.880000 48.747787
v 6.281295 0.880000 53.497787
v 6.281295 0.880000 56.622787
v 5.156295 0.880000 57.997787
v 2.406295 0.880000 57.747787
v 1.531295 0.880000 55.497787
v 1.156295 0.880000 50.372787
v 1.031295 0.880000 47.997787
v 0.406295 0.880000 45.622787
v 0.781295 0.880000 43.622787
v 0.656295 0.880000 38.872787
v 0.031295 0.880000 33.747787
v -0.468705 0.880000 31.872787
v -0.218705 0.880000 28.497787
v -1.093705 0.880000 25.122787
v -2.093705 0.880000 15.997787
v -2.218705 0.880000 12.122787
v -2.843705 0.880000 3.122787
v -4.093705 2.213334 0.872787
v -4.593705 2.573334 -7.627213
v -4.968705 2.213334 -13.046329
v -2.422276 0.880000 -20.184357
v -1.297277 3.813333 -20.084356
v -1.218705 5.630000 -15.141918
v -0.468705 4.246670 -7.477213
v 0.531295 5.846667 6.539454
v 2.281295 4.113334 19.622787
v 3.031295 4.713334 31.856121
v 2.781295 3.380000 42.089455
v 3.156295 2.846667 48.147789
v 4.281295 1.980000 57.156120
v 2.531295 5.630000 -15.016918
v 3.406295 4.246670 -7.602213
v 3.781295 5.846667 6.664454
v -4.886843 0.880000 -17.478195
v -4.298608 0.880000 -15.125254
v 7.642159 0.880000 -14.110294
v 12.600498 0.880000 -5.165855
v 8.600494 0.880000 -0.165852
v 10.933830 0.880000 -3.054741
v 2.263547 -3.697949 -18.127930
v 3.638548 -0.880000 -20.170238
v 5.906401 -0.880000 -17.502380
v 5.406400 -0.880000 -15.127372
v 6.906398 -0.880000 -13.377374
v 7.281401 -0.880000 -6.877375
v 7.781401 -0.880000 1.747627
v 7.281401 -0.880000 3.622628
v 6.781398 -0.880000 11.747630
v 6.156397 -0.880000 19.247623
v 5.906401 -0.880000 26.997650
v 6.406397 -0.880000 31.247627
v 5.656400 -0.880000 34.872696
v 5.531400 -0.880000 38.622704
v 5.031408 -0.880000 40.497704
v 5.031408 -0.880000 44.372704
v 5.531400 -0.880000 48.747704
v 6.281397 -0.880000 53.497704
v 6.281397 -0.880000 56.622719
v 5.156400 -0.880000 57.997711
v 2.406404 -0.880000 57.747711
v 1.531406 -0.880000 55.497704
v 1.156406 -0.880000 50.372704
v 1.031406 -0.880000 47.997704
v 0.406406 -0.880000 45.622704
v 0.781406 -0.880000 43.622704
v 0.656407 -0.880000 38.872704
v 0.031409 -0.880000 33.747696
v -0.468593 -0.880000 31.872658
v -0.218594 -0.880000 28.497635
v -1.093594 -0.880000 25.122646
v -2.093592 -0.880000 15.997620
v -2.218592 -0.880000 12.122630
v -2.843594 -0.880000 3.122628
v -4.093599 -0.880000 0.872627
v -4.593596 -0.880000 -7.627373
v -4.968598 -0.880000 -13.046491
v -2.422166 -0.880000 -20.184521
v -1.297164 -3.697949 -17.892216
v -1.218594 -4.514615 -12.988231
v -0.468593 -4.246670 -7.477372
v 0.531406 -5.068890 11.205958
v 2.281404 -4.780000 20.955959
v 3.031404 -2.157779 33.855988
v 2.781402 -1.491112 43.200478
v 3.156404 -2.068889 52.369926
v 4.281405 -1.535555 55.822716
v 2.531404 -4.514615 -12.863233
v 3.406403 -4.246670 -7.602373
v 3.781400 -5.068890 11.330958
v -4.886734 -0.880000 -17.478355
v -4.298497 -0.880000 -15.125411
v -1.986186 7.000000 -23.407568
v 3.420962 7.000000 -23.618559
v 3.759981 5.730772 -23.770950
v 4.028274 5.730772 -23.429487
v 6.345347 6.500005 -25.596466
v 6.052664 6.500005 -25.986710
v 10.108098 9.000006 -29.164516
v 9.912976 9.000006 -29.530375
v 14.613641 13.500009 -33.017685
v 14.345348 13.500009 -33.432320
v 19.857544 19.807701 -38.334755
v 19.516079 19.807701 -38.603050
v 23.516081 27.576933 -43.042076
v 23.150227 27.576933 -43.334755
v 26.223396 34.539089 -46.850998
v 25.930714 34.720165 -47.277580
v 27.247787 34.844040 -47.887608
v 27.125835 35.063240 -48.403980
v 31.052666 36.025799 -50.671581
v 32.589249 36.082935 -50.806301
v 32.540470 35.797058 -50.132751
v 28.101446 34.863129 -47.932510
v -2.316513 5.730772 -22.323051
v -2.511635 5.730772 -21.835247
v -5.630260 6.500005 -24.694021
v -5.288797 6.500005 -25.011095
v -10.013851 9.000006 -28.091343
v -9.672388 9.000006 -28.603539
v -14.435139 13.500009 -31.798210
v -14.044895 13.500009 -32.188450
v -20.483919 19.807701 -37.578659
v -20.069284 19.807701 -37.993294
v -24.828707 27.576933 -42.513248
v -24.414072 27.576933 -42.879108
v -27.731146 34.186481 -46.247555
v -27.438461 34.396145 -46.741482
v -29.804316 35.206219 -48.649845
v -32.292122 35.644573 -49.682636
v -32.365295 35.234776 -48.717201
v -29.804316 34.682041 -47.415009
v -28.536024 34.291321 -46.494530
# 360 vertices

vt 0.548702 0.589371
vt 0.570413 0.528996
vt 0.793112 0.715747
vt 0.567494 0.627247
vt 0.593279 0.669247
vt 0.619064 0.708247
vt 0.647281 0.746498
vt 0.677445 0.789248
vt 0.704689 0.825998
vt 0.733880 0.858249
vt 0.776206 0.900999
vt 0.814154 0.934749
vt 0.849669 0.959500
vt 0.888103 0.983500
vt 0.924105 1.000000
vt 0.954755 1.000000
vt 0.976161 0.991750
vt 0.990756 0.970000
vt 1.000000 0.940750
vt 0.999514 0.909999
vt 0.998054 0.888249
vt 0.987351 0.857499
vt 0.985891 0.846999
vt 0.979080 0.836499
vt 0.966431 0.813998
vt 0.959133 0.789248
vt 0.948917 0.765998
vt 0.938700 0.744998
vt 0.936754 0.717248
vt 0.926537 0.688747
vt 0.925564 0.678997
vt 0.920699 0.662497
vt 0.919240 0.638497
vt 0.915347 0.610747
vt 0.911942 0.592746
vt 0.911455 0.577746
vt 0.905131 0.557496
vt 0.902212 0.537246
vt 0.893455 0.521496
vt 0.878859 0.508746
vt 0.851615 0.503496
vt 0.814154 0.504246
vt 0.784963 0.507246
vt 0.747989 0.506496
vt 0.713446 0.509496
vt 0.685229 0.507246
vt 0.653119 0.508746
vt 0.638524 0.511746
vt 0.614685 0.521496
vt 0.587441 0.528246
vt 0.772800 0.490746
vt 0.696783 0.309057
vt 0.801991 0.470495
vt 0.830695 0.441245
vt 0.855020 0.414245
vt 0.873994 0.384995
vt 0.885184 0.348244
vt 0.894428 0.312244
vt 0.896374 0.291244
vt 0.563115 0.514746
vt 0.552899 0.495246
vt 0.550831 0.476027
vt 0.549432 0.436651
vt 0.546574 0.405995
vt 0.543898 0.367838
vt 0.543655 0.330244
vt 0.548033 0.315244
vt 0.558250 0.276994
vt 0.570413 0.236493
vt 0.583549 0.191493
vt 0.593765 0.153993
vt 0.603982 0.114242
vt 0.615658 0.070742
vt 0.628307 0.042242
vt 0.641443 0.030242
vt 0.657984 0.022742
vt 0.675012 0.021242
vt 0.693986 0.019742
vt 0.706149 0.021242
vt 0.711987 0.026492
vt 0.721717 0.024242
vt 0.724150 0.030992
vt 0.730474 0.032492
vt 0.746529 0.033242
vt 0.755286 0.042242
vt 0.763557 0.047492
vt 0.778152 0.060992
vt 0.786909 0.060992
vt 0.798099 0.075242
vt 0.808316 0.090992
vt 0.815613 0.099242
vt 0.825830 0.108242
vt 0.837993 0.116492
vt 0.845290 0.119492
vt 0.851128 0.124743
vt 0.854047 0.141243
vt 0.859399 0.156243
vt 0.865237 0.168243
vt 0.869616 0.180993
vt 0.874967 0.189243
vt 0.882265 0.204243
vt 0.883238 0.222243
vt 0.885670 0.250744
vt 0.890049 0.270994
vt 0.236991 0.680179
vt 0.469401 0.524060
vt 0.489442 0.583981
vt 0.465816 0.619436
vt 0.438693 0.660705
vt 0.410801 0.696093
vt 0.380528 0.730406
vt 0.348063 0.768941
vt 0.318844 0.801891
vt 0.281921 0.840221
vt 0.248285 0.871216
vt 0.207479 0.900583
vt 0.171247 0.924686
vt 0.132150 0.945118
vt 0.092068 0.960937
vt 0.043473 0.961882
vt 0.012763 0.942349
vt 0.000000 0.903533
vt 0.004486 0.866402
vt 0.006162 0.845959
vt 0.015961 0.820269
vt 0.030551 0.793605
vt 0.036430 0.784185
vt 0.043809 0.774640
vt 0.053851 0.757300
vt 0.062520 0.733624
vt 0.076202 0.707617
vt 0.083188 0.689757
vt 0.087790 0.661530
vt 0.096843 0.632823
vt 0.098363 0.623241
vt 0.103595 0.609145
vt 0.106406 0.585432
vt 0.112400 0.559154
vt 0.116810 0.541680
vt 0.120332 0.523427
vt 0.127777 0.504104
vt 0.134019 0.487698
vt 0.148012 0.473184
vt 0.163273 0.462444
vt 0.190710 0.460874
vt 0.227987 0.466655
vt 0.256896 0.473565
vt 0.293773 0.477786
vt 0.328014 0.485416
vt 0.356251 0.486966
vt 0.388154 0.492774
vt 0.402524 0.497724
vt 0.425721 0.510640
vt 0.452480 0.521025
vt 0.355945 0.287978
vt 0.266114 0.462137
vt 0.238180 0.438042
vt 0.211239 0.405046
vt 0.188532 0.374881
vt 0.171284 0.343192
vt 0.162215 0.305078
vt 0.155042 0.267973
vt 0.158122 0.243416
vt 0.477476 0.510844
vt 0.488756 0.492791
vt 0.499679 0.472431
vt 0.499291 0.436241
vt 0.500103 0.404730
vt 0.507154 0.366531
vt 0.507293 0.329660
vt 0.503780 0.314128
vt 0.495764 0.274651
vt 0.485938 0.232670
vt 0.475396 0.186076
vt 0.467338 0.147346
vt 0.459408 0.106374
vt 0.450235 0.061470
vt 0.439245 0.031379
vt 0.426838 0.017660
vt 0.410784 0.007966
vt 0.393906 0.004184
vt 0.375089 0.000140
vt 0.362887 0.000000
vt 0.356775 0.004446
vt 0.347209 0.000897
vt 0.344404 0.007294
vt 0.338019 0.007939
vt 0.321982 0.006529
vt 0.312750 0.014318
vt 0.304214 0.018437
vt 0.288911 0.029925
vt 0.280187 0.028748
vt 0.268234 0.041440
vt 0.257166 0.055758
vt 0.249430 0.062996
vt 0.238743 0.070589
vt 0.226160 0.077174
vt 0.218721 0.079182
vt 0.212608 0.083628
vt 0.208767 0.099673
vt 0.202588 0.113897
vt 0.196094 0.125067
vt 0.191011 0.137180
vt 0.185213 0.144680
vt 0.177095 0.158642
vt 0.175108 0.176443
vt 0.171074 0.204508
vt 0.165567 0.224093
vt 0.493485 0.582190
vt 0.495127 0.545610
vt 0.497316 0.488235
vt 0.509904 0.596335
vt 0.513188 0.544598
vt 0.530155 0.545442
vt 0.526324 0.595491
vt 0.517567 0.449984
vt 0.531797 0.449141
vt 0.525229 0.361671
vt 0.509560 0.629697
vt 0.504634 0.630372
vt 0.502789 0.473047
vt 0.505526 0.412297
vt 0.506073 0.386140
vt 0.510452 0.324546
vt 0.514283 0.301764
vt 0.528513 0.279095
vt 0.513188 0.278983
vt 0.515378 0.266327
vt 0.518114 0.231733
vt 0.527419 0.210020
vt 0.518662 0.199670
vt 0.517020 0.186170
vt 0.529061 0.169126
vt 0.519756 0.170138
vt 0.520303 0.154107
vt 0.521945 0.119513
vt 0.533987 0.108319
vt 0.525777 0.104325
vt 0.537818 0.102638
vt 0.542744 0.111919
vt 0.542744 0.133013
vt 0.539460 0.165076
vt 0.537270 0.194607
vt 0.537270 0.220764
vt 0.539460 0.233420
vt 0.540007 0.258733
vt 0.543291 0.283202
vt 0.541102 0.311889
vt 0.542196 0.364202
vt 0.544933 0.414828
vt 0.547122 0.469672
vt 0.549312 0.482328
vt 0.547122 0.540548
vt 0.545480 0.584423
vt 0.538912 0.596236
vt 0.541102 0.612267
vt 0.531172 0.630275
vt 0.525151 0.631288
vt 0.493843 0.612105
vt 0.496419 0.596222
vt 0.509905 0.581797
vt 0.526325 0.580954
vt 0.531798 0.417641
vt 0.517567 0.418485
vt 0.525230 0.352672
vt 0.509561 0.614900
vt 0.528514 0.265596
vt 0.527419 0.202520
vt 0.529061 0.140626
vt 0.533987 0.117320
vt 0.525152 0.616491
vt 0.506544 0.652129
vt 0.530219 0.653553
vt 0.393818 0.806300
vt 0.395099 0.809634
vt 0.390293 0.807967
vt 0.384740 0.822515
vt 0.384740 0.814180
vt 0.373847 0.829487
vt 0.373527 0.822970
vt 0.406526 0.781093
vt 0.408342 0.783563
vt 0.425550 0.747784
vt 0.427366 0.750583
vt 0.452035 0.708766
vt 0.453744 0.711400
vt 0.471394 0.683744
vt 0.472889 0.687202
vt 0.490588 0.660812
vt 0.492083 0.662952
vt 0.504243 0.641515
vt 0.505098 0.644808
vt 0.532879 0.652277
vt 0.531704 0.654581
vt 0.543024 0.666904
vt 0.541743 0.669538
vt 0.559500 0.690988
vt 0.558645 0.693458
vt 0.579228 0.716997
vt 0.578053 0.719796
vt 0.602188 0.752888
vt 0.600693 0.754699
vt 0.618208 0.784663
vt 0.616606 0.786638
vt 0.630062 0.810373
vt 0.628780 0.813253
vt 0.634547 0.817370
vt 0.634013 0.820856
vt 0.638285 0.817673
vt 0.657722 0.832525
vt 0.657935 0.837072
vt 0.651207 0.836162
# 312 texture coordinates

vn -0.000000 1.000000 0.000000
vn -0.182688 0.982483 -0.036778
vn -0.268487 0.953284 -0.138432
vn -0.092404 0.991823 0.088022
vn -0.291061 0.943510 0.158342
vn -0.218776 0.958853 0.180938
vn -0.542250 0.810680 -0.220825
vn -0.316842 0.943650 0.095584
vn -0.605593 0.740980 0.290183
vn -0.530136 0.841179 -0.106650
vn -0.254032 0.964562 0.071329
vn 0.276413 0.959708 -0.050554
vn 0.528433 0.832813 -0.164865
vn -0.546677 0.835362 0.057570
vn 0.494365 0.865790 0.077530
vn -0.070599 0.992749 0.097285
vn -0.531823 0.755737 -0.382135
vn -0.387965 0.314124 -0.866493
vn -0.901106 0.421081 -0.103433
vn -0.828522 0.558042 0.046272
vn -0.816967 0.502847 0.282330
vn -0.858496 0.414411 0.302072
vn -0.933170 0.350929 0.077733
vn -0.935834 0.347638 0.057981
vn -0.922292 0.355432 0.151804
vn -0.915259 0.390856 0.097631
vn 0.000829 0.997783 0.066553
vn -0.955953 0.288567 0.053694
vn -0.940277 0.277878 0.196627
vn -0.940222 0.331534 0.077894
vn -0.003906 0.997517 0.070313
vn -0.966224 0.251583 -0.055826
vn -0.927947 0.372700 0.003171
vn -0.081801 0.995242 0.052938
vn -0.933852 0.315329 0.168782
vn -0.945679 0.320026 0.057232
vn -0.861631 0.479001 0.167779
vn 0.106424 0.944413 0.311059
vn -0.628440 0.364183 0.687338
vn 0.246448 0.310232 0.918161
vn 0.834938 0.380101 0.397997
vn 0.879688 0.473371 -0.045478
vn 0.934294 0.331225 -0.131850
vn 0.923561 0.379928 -0.051855
vn 0.958932 0.265501 0.099792
vn 0.933339 0.322499 0.157709
vn 0.961501 0.257614 0.095654
vn 0.956689 0.280786 0.076844
vn 0.923752 0.377860 -0.062490
vn 0.940455 0.336405 0.048735
vn 0.932917 0.348634 0.090112
vn 0.966124 0.181515 0.183457
vn 0.900541 0.415733 0.127245
vn 0.786446 0.617315 -0.020608
vn 0.717651 0.610795 -0.334525
vn 0.845548 0.498708 -0.190631
vn 0.954743 0.269582 -0.125662
vn 0.801485 0.330097 -0.498657
vn 0.508942 0.579020 -0.636957
vn -0.952411 0.282859 -0.113599
vn -0.964271 0.217437 -0.151338
vn 0.414109 -0.908139 -0.061617
vn -0.417653 -0.907092 0.052441
vn -0.434724 -0.898216 -0.064984
vn 0.530454 -0.842651 -0.092511
vn 0.520438 -0.852170 0.054319
vn -0.545117 -0.836895 0.049546
vn -0.082199 -0.987340 0.135656
vn -0.427784 -0.507161 -0.748190
vn -0.395451 -0.827276 -0.399041
vn -0.957529 -0.281747 0.061292
vn -0.907786 -0.404932 -0.109335
vn -0.871678 -0.390691 0.295869
vn -0.906760 -0.386569 0.168378
vn -0.941915 -0.329203 0.066499
vn -0.947664 -0.310151 0.075756
vn -0.931430 -0.312751 0.186076
vn -0.877699 -0.471723 0.084387
vn 0.002430 -0.997503 0.070581
vn -0.884277 -0.449561 0.126289
vn -0.887075 -0.434873 0.154864
vn -0.821594 -0.567142 0.057745
vn -0.000586 -0.999967 0.008044
vn -0.877181 -0.470370 -0.096466
vn -0.857636 -0.507321 0.084173
vn -0.120903 -0.991945 0.037795
vn -0.937335 -0.323527 0.129360
vn -0.921819 -0.382898 0.060323
vn -0.793856 -0.560361 0.236196
vn 0.064451 -0.987154 0.146194
vn -0.381142 -0.529714 0.757716
vn 0.445281 -0.509768 0.736112
vn 0.848136 -0.485991 0.210899
vn 0.816334 -0.573446 -0.068979
vn 0.890810 -0.439334 -0.115945
vn 0.810936 -0.583213 -0.047386
vn 0.873504 -0.462988 0.150441
vn 0.824894 -0.555792 0.103178
vn 0.895606 -0.426423 0.126703
vn 0.894326 -0.447400 0.003641
vn 0.888072 -0.459597 0.009903
vn 0.952370 -0.298874 0.060538
vn 0.940876 -0.328941 0.080933
vn 0.965653 -0.186789 0.180620
vn 0.943197 -0.327680 0.054819
vn 0.943025 -0.328228 -0.054507
vn 0.818590 -0.483559 -0.309970
vn 0.916508 -0.352851 -0.188440
vn 0.893937 -0.329791 -0.303503
vn 0.421984 -0.399451 -0.813861
vn 0.186205 -0.863504 -0.468709
vn -0.887744 -0.342422 -0.307666
vn -0.960021 -0.277699 0.035252
vn 0.015602 0.465064 0.885140
vn 0.860793 0.426273 0.278077
vn 0.389132 0.733320 0.557511
vn 0.148531 0.875575 0.459682
vn 0.000002 0.920503 0.390735
vn 0.528804 0.624042 0.575272
vn 0.537726 0.602794 0.589483
vn 0.466485 0.751520 0.466486
vn 0.493597 0.699911 0.516224
vn 0.461126 0.790050 0.403960
vn 0.431081 0.792676 0.431084
vn 0.380835 0.877039 0.292861
vn 0.434500 0.834374 0.339159
vn 0.197700 0.964942 0.172630
vn 0.251253 0.941608 0.224157
vn 0.672566 0.689405 0.269027
vn 0.632805 0.702591 0.325459
vn 0.356517 0.925429 0.128365
vn 0.396136 0.863828 -0.311251
vn -0.311771 0.927742 0.205164
vn -0.241416 0.952957 0.183279
vn -0.485214 0.828952 0.278217
vn -0.430516 0.865894 0.254722
vn -0.491321 0.772753 0.401815
vn -0.537034 0.777664 0.326854
vn -0.464231 0.663206 0.587067
vn -0.486893 0.714349 0.502634
vn -0.524000 0.574568 0.628726
vn -0.501413 0.592514 0.630485
vn -0.141651 0.865501 0.480461
vn -0.361342 0.731624 0.578064
vn 0.049231 0.923510 0.380403
vn 0.040643 0.925678 0.376123
vn 0.699932 0.599621 -0.388007
vn 0.446822 0.878870 -0.167143
vn 0.282702 0.956733 0.068859
vn 0.579510 0.809931 0.090443
# 150 normals

g Wing_Right
usemtl Material01
s 1
f 4/1/1 52/2/1 106/3/1
f 4/1/1 106/3/1 5/4/1
f 5/4/1 106/3/1 6/5/1
f 6/5/1 106/3/1 7/6/1
f 7/6/1 106/3/1 8/7/1
f 9/8/1 8/7/1 106/3/1
f 106/3/1 10/9/1 9/8/1
f 106/3/1 11/10/1 10/9/1
f 106/3/1 12/11/1 11/10/1
f 106/3/1 13/12/1 12/11/1
f 106/3/1 14/13/1 13/12/1
f 106/3/1 15/14/1 14/13/1
f 106/3/1 16/15/1 15/14/1
f 106/3/1 17/16/1 16/15/1
f 106/3/1 18/17/1 17/16/1
f 106/3/1 19/18/1 18/17/1
f 106/3/1 20/19/1 19/18/1
f 106/3/1 21/20/1 20/19/1
f 106/3/1 22/21/1 21/20/1
f 106/3/1 23/22/1 22/21/1
f 106/3/1 24/23/1 23/22/1
f 106/3/1 25/24/1 24/23/1
f 106/3/1 26/25/1 25/24/1
f 106/3/1 27/26/1 26/25/1
f 28/27/1 27/26/1 106/3/1
f 29/28/1 28/27/1 106/3/1
f 30/29/1 29/28/1 106/3/1
f 31/30/1 30/29/1 106/3/1
f 32/31/1 31/30/1 106/3/1
f 33/32/1 32/31/1 106/3/1
f 34/33/1 33/32/1 106/3/1
f 35/34/1 34/33/1 106/3/1
f 36/35/1 35/34/1 106/3/1
f 37/36/1 36/35/1 106/3/1
f 38/37/1 37/36/1 106/3/1
f 39/38/1 38/37/1 106/3/1
f 40/39/1 39/38/1 106/3/1
f 41/40/1 40/39/1 106/3/1
f 42/41/1 41/40/1 106/3/1
f 43/42/1 42/41/1 106/3/1
f 44/43/1 43/42/1 106/3/1
f 45/44/1 44/43/1 106/3/1
f 106/3/1 46/45/1 45/44/1
f 106/3/1 47/46/1 46/45/1
f 106/3/1 48/47/1 47/46/1
f 106/3/1 49/48/1 48/47/1
f 106/3/1 50/49/1 49/48/1
f 106/3/1 51/50/1 50/49/1
f 106/3/1 52/2/1 51/50/1
f 53/51/1 45/44/1 107/52/1
f 107/52/1 54/53/1 53/51/1
f 55/54/1 54/53/1 107/52/1
f 107/52/1 56/55/1 55/54/1
f 107/52/1 57/56/1 56/55/1
f 58/57/1 57/56/1 107/52/1
f 107/52/1 59/58/1 58/57/1
f 107/52/1 60/59/1 59/58/1
f 107/52/1 45/44/1 46/45/1
f 46/45/1 47/46/1 107/52/1
f 47/46/1 48/47/1 107/52/1
f 107/52/1 48/47/1 49/48/1
f 49/48/1 50/49/1 107/52/1
f 50/49/1 51/50/1 107/52/1
f 107/52/1 51/50/1 52/2/1
f 52/2/1 105/60/1 107/52/1
f 105/60/1 104/61/1 107/52/1
f 104/61/1 103/62/1 107/52/1
f 103/62/1 102/63/1 107/52/1
f 102/63/1 101/64/1 107/52/1
f 101/64/1 100/65/1 107/52/1
f 100/65/1 99/66/1 107/52/1
f 99/66/1 98/67/1 107/52/1
f 98/67/1 97/68/1 107/52/1
f 97/68/1 96/69/1 107/52/1
f 96/69/1 95/70/1 107/52/1
f 95/70/1 94/71/1 107/52/1
f 94/71/1 93/72/1 107/52/1
f 93/72/1 92/73/1 107/52/1
f 92/73/1 91/74/1 107/52/1
f 91/74/1 90/75/1 107/52/1
f 90/75/1 89/76/1 107/52/1
f 89/76/1 88/77/1 107/52/1
f 88/77/1 87/78/1 107/52/1
f 107/52/1 87/78/1 86/79/1
f 86/79/1 85/80/1 107/52/1
f 107/52/1 85/80/1 84/81/1
f 84/81/1 83/82/1 107/52/1
f 107/52/1 83/82/1 82/83/1
f 82/83/1 81/84/1 107/52/1
f 81/84/1 80/85/1 107/52/1
f 107/52/1 80/85/1 79/86/1
f 79/86/1 78/87/1 107/52/1
f 78/87/1 77/88/1 107/52/1
f 107/52/1 77/88/1 76/89/1
f 76/89/1 75/90/1 107/52/1
f 75/90/1 74/91/1 107/52/1
f 74/91/1 73/92/1 107/52/1
f 73/92/1 72/93/1 107/52/1
f 72/93/1 71/94/1 107/52/1
f 107/52/1 71/94/1 70/95/1
f 70/95/1 69/96/1 107/52/1
f 69/96/1 68/97/1 107/52/1
f 107/52/1 68/97/1 67/98/1
f 67/98/1 66/99/1 107/52/1
f 66/99/1 65/100/1 107/52/1
f 65/100/1 64/101/1 107/52/1
f 107/52/1 64/101/1 63/102/1
f 63/102/1 62/103/1 107/52/1
f 62/103/1 61/104/1 107/52/1
f 107/52/1 61/104/1 60/59/1
# 110 triangles in group

g Wing_Left
usemtl Material01
f 210/105/1 156/106/2 108/107/3
f 109/108/1 210/105/1 108/107/3
f 110/109/1 210/105/1 109/108/1
f 111/110/1 210/105/1 110/109/1
f 112/111/1 210/105/1 111/110/1
f 210/105/1 112/111/1 113/112/1
f 113/112/1 114/113/1 210/105/1
f 114/113/1 115/114/1 210/105/1
f 115/114/1 116/115/1 210/105/1
f 116/115/1 117/116/1 210/105/1
f 117/116/1 118/117/1 210/105/1
f 118/117/1 119/118/1 210/105/1
f 119/118/1 120/119/1 210/105/1
f 120/119/1 121/120/1 210/105/1
f 121/120/1 122/121/1 210/105/1
f 122/121/1 123/122/1 210/105/1
f 123/122/1 124/123/1 210/105/1
f 124/123/1 125/124/1 210/105/1
f 125/124/1 126/125/1 210/105/1
f 126/125/1 127/126/1 210/105/1
f 127/126/1 128/127/1 210/105/1
f 128/127/1 129/128/1 210/105/1
f 129/128/1 130/129/1 210/105/1
f 130/129/1 131/130/1 210/105/1
f 210/105/1 131/130/1 132/131/1
f 210/105/1 132/131/1 133/132/1
f 210/105/1 133/132/1 134/133/1
f 210/105/1 134/133/1 135/134/1
f 210/105/1 135/134/1 136/135/1
f 210/105/1 136/135/1 137/136/1
f 210/105/1 137/136/1 138/137/1
f 210/105/1 138/137/1 139/138/1
f 210/105/1 139/138/1 140/139/1
f 210/105/1 140/139/1 141/140/1
f 210/105/1 141/140/1 142/141/1
f 210/105/1 142/141/1 143/142/1
f 210/105/1 143/142/1 144/143/1
f 210/105/1 144/143/1 145/144/1
f 210/105/1 145/144/1 146/145/1
f 210/105/1 146/145/1 147/146/1
f 210/105/1 147/146/1 148/147/1
f 210/105/1 148/147/1 149/148/1
f 149/148/1 150/149/1 210/105/1
f 150/149/1 151/150/1 210/105/1
f 151/150/1 152/151/1 210/105/1
f 152/151/1 153/152/1 210/105/1
f 153/152/1 154/153/1 210/105/1
f 154/153/1 155/154/1 210/105/1
f 155/154/1 156/106/2 210/105/1
f 211/155/1 149/148/1 157/156/1
f 157/156/1 158/157/1 211/155/1
f 211/155/1 158/157/1 159/158/1
f 159/158/1 160/159/1 211/155/1
f 160/159/1 161/160/1 211/155/1
f 211/155/1 161/160/1 162/161/1
f 162/161/1 163/162/1 211/155/1
f 163/162/1 164/163/1 211/155/1
f 150/149/1 149/148/1 211/155/1
f 211/155/1 151/150/1 150/149/1
f 211/155/1 152/151/1 151/150/1
f 153/152/1 152/151/1 211/155/1
f 211/155/1 154/153/1 153/152/1
f 211/155/1 155/154/1 154/153/1
f 156/106/2 155/154/1 211/155/1
f 211/155/1 209/164/4 156/106/2
f 211/155/1 208/165/5 209/164/4
f 211/155/1 207/166/6 208/165/5
f 211/155/1 206/167/1 207/166/6
f 211/155/1 205/168/1 206/167/1
f 211/155/1 204/169/1 205/168/1
f 211/155/1 203/170/1 204/169/1
f 211/155/1 202/171/1 203/170/1
f 211/155/1 201/172/1 202/171/1
f 211/155/1 200/173/1 201/172/1
f 211/155/1 199/174/1 200/173/1
f 211/155/1 198/175/1 199/174/1
f 211/155/1 197/176/1 198/175/1
f 211/155/1 196/177/1 197/176/1
f 211/155/1 195/178/1 196/177/1
f 211/155/1 194/179/1 195/178/1
f 211/155/1 193/180/1 194/179/1
f 211/155/1 192/181/1 193/180/1
f 211/155/1 191/182/1 192/181/1
f 190/183/1 191/182/1 211/155/1
f 211/155/1 189/184/1 190/183/1
f 188/185/1 189/184/1 211/155/1
f 211/155/1 187/186/1 188/185/1
f 186/187/1 187/186/1 211/155/1
f 211/155/1 185/188/1 186/187/1
f 211/155/1 184/189/1 185/188/1
f 183/190/1 184/189/1 211/155/1
f 211/155/1 182/191/1 183/190/1
f 211/155/1 181/192/1 182/191/1
f 180/193/1 181/192/1 211/155/1
f 211/155/1 179/194/1 180/193/1
f 211/155/1 178/195/1 179/194/1
f 211/155/1 177/196/1 178/195/1
f 211/155/1 176/197/1 177/196/1
f 211/155/1 175/198/1 176/197/1
f 174/199/1 175/198/1 211/155/1
f 211/155/1 173/200/1 174/199/1
f 211/155/1 172/201/1 173/200/1
f 171/202/1 172/201/1 211/155/1
f 211/155/1 170/203/1 171/202/1
f 211/155/1 169/204/1 170/203/1
f 211/155/1 168/205/1 169/204/1
f 167/206/1 168/205/1 211/155/1
f 211/155/1 166/207/1 167/206/1
f 211/155/1 165/208/1 166/207/1
f 164/163/1 165/208/1 211/155/1
f 3/209/7 108/107/3 156/106/2
f 156/106/2 209/164/4 2/210/8
f 2/210/8 3/209/7 156/106/2
f 209/164/4 208/165/5 2/210/8
f 208/165/5 1/211/9 2/210/8
f 207/166/6 1/211/9 208/165/5
# 116 triangles in group

g Body
usemtl Material01
f 251/212/10 252/213/11 260/214/12
f 260/214/12 259/215/13 251/212/10
f 252/213/11 253/216/14 261/217/15
f 261/217/15 260/214/12 252/213/11
f 253/216/14 254/218/16 261/217/15
f 250/219/17 249/220/18 251/212/10
f 248/209/19 247/210/20 252/213/11
f 252/213/11 251/212/10 248/209/19
f 247/210/20 246/211/21 252/213/11
f 252/213/11 246/211/21 245/221/22
f 245/221/22 253/216/14 252/213/11
f 245/221/22 244/222/23 253/216/14
f 244/222/23 243/223/24 254/218/16
f 254/218/16 253/216/14 244/222/23
f 243/223/24 242/224/25 254/218/16
f 254/218/16 242/224/25 241/225/26
f 241/225/26 255/226/27 254/218/16
f 241/225/26 240/227/28 255/226/27
f 240/227/28 239/228/29 255/226/27
f 239/228/29 238/229/30 255/226/27
f 255/226/27 238/229/30 256/230/31
f 256/230/31 238/229/30 237/231/32
f 237/231/32 236/232/33 256/230/31
f 256/230/31 236/232/33 257/233/34
f 257/233/34 236/232/33 235/234/35
f 235/234/35 234/235/36 257/233/34
f 257/233/34 234/235/36 233/236/37
f 233/236/37 258/237/38 257/233/34
f 233/236/37 232/238/39 258/237/38
f 232/238/39 231/239/40 258/237/38
f 231/239/40 230/240/41 258/237/38
f 230/240/41 229/241/42 258/237/38
f 229/241/42 228/242/43 257/233/34
f 257/233/34 258/237/38 229/241/42
f 228/242/43 227/243/44 257/233/34
f 227/243/44 256/230/31 257/233/34
f 227/243/44 226/244/45 256/230/31
f 226/244/45 225/245/46 256/230/31
f 225/245/46 255/226/27 256/230/31
f 225/245/46 224/246/47 255/226/27
f 224/246/47 223/247/48 255/226/27
f 223/247/48 222/248/49 255/226/27
f 222/248/49 254/218/16 255/226/27
f 222/248/49 221/249/50 254/218/16
f 221/249/50 220/250/51 254/218/16
f 254/218/16 220/250/51 261/217/15
f 220/250/51 219/251/52 261/217/15
f 219/251/52 218/252/53 261/217/15
f 218/252/53 217/253/54 260/214/12
f 260/214/12 261/217/15 218/252/53
f 217/253/54 216/254/55 260/214/12
f 216/254/55 215/255/56 260/214/12
f 215/255/56 259/215/13 260/214/12
f 214/256/57 259/215/13 215/255/56
f 214/256/57 213/257/58 259/215/13
f 213/257/58 212/258/59 259/215/13
f 249/220/18 262/259/60 251/212/10
f 251/212/10 262/259/60 263/260/61
f 263/260/61 248/209/19 251/212/10
f 212/258/59 213/257/58 249/220/18
f 249/220/18 250/219/17 212/258/59
f 316/214/62 308/213/63 307/261/64
f 307/261/64 315/262/65 316/214/62
f 317/263/66 309/264/67 308/213/63
f 308/213/63 316/214/62 317/263/66
f 317/263/66 310/265/68 309/264/67
f 307/261/64 305/220/69 306/266/70
f 308/213/63 303/210/71 304/209/72
f 304/209/72 307/261/64 308/213/63
f 308/213/63 302/211/73 303/210/71
f 301/221/74 302/211/73 308/213/63
f 308/213/63 309/264/67 301/221/74
f 309/264/67 300/222/75 301/221/74
f 310/265/68 299/223/76 300/222/75
f 300/222/75 309/264/67 310/265/68
f 310/265/68 298/224/77 299/223/76
f 297/225/78 298/224/77 310/265/68
f 310/265/68 311/267/79 297/225/78
f 311/267/79 296/227/80 297/225/78
f 311/267/79 295/228/81 296/227/80
f 311/267/79 294/229/82 295/228/81
f 312/268/83 294/229/82 311/267/79
f 293/231/84 294/229/82 312/268/83
f 312/268/83 292/232/85 293/231/84
f 313/269/86 292/232/85 312/268/83
f 291/234/87 292/232/85 313/269/86
f 313/269/86 290/235/88 291/234/87
f 289/236/89 290/235/88 313/269/86
f 313/269/86 314/270/90 289/236/89
f 314/270/90 288/238/91 289/236/89
f 314/270/90 287/239/92 288/238/91
f 314/270/90 286/240/93 287/239/92
f 314/270/90 285/241/94 286/240/93
f 313/269/86 284/242/95 285/241/94
f 285/241/94 314/270/90 313/269/86
f 313/269/86 283/243/96 284/242/95
f 313/269/86 312/268/83 283/243/96
f 312/268/83 282/244/97 283/243/96
f 312/268/83 281/245/98 282/244/97
f 312/268/83 311/267/79 281/245/98
f 311/267/79 280/246/99 281/245/98
f 311/267/79 279/247/100 280/246/99
f 311/267/79 278/248/101 279/247/100
f 311/267/79 310/265/68 278/248/101
f 310/265/68 277/249/102 278/248/101
f 310/265/68 276/250/103 277/249/102
f 317/263/66 276/250/103 310/265/68
f 317/263/66 275/251/104 276/250/103
f 317/263/66 274/252/105 275/251/104
f 316/214/62 273/253/106 274/252/105
f 274/252/105 317/263/66 316/214/62
f 316/214/62 272/254/107 273/253/106
f 316/214/62 271/255/108 272/254/107
f 316/214/62 315/262/65 271/255/108
f 271/255/108 315/262/65 270/256/109
f 315/262/65 269/257/110 270/256/109
f 315/262/65 268/271/111 269/257/110
f 307/261/64 318/259/112 305/220/69
f 319/260/113 318/259/112 307/261/64
f 307/261/64 304/209/72 319/260/113
f 305/220/69 269/257/110 268/271/111
f 268/271/111 306/266/70 305/220/69
f 213/257/58 269/257/110 249/220/18
f 269/257/110 305/220/69 249/220/18
f 249/220/18 305/220/69 318/259/112
f 318/259/112 262/259/60 249/220/18
f 262/259/60 318/259/112 319/260/113
f 319/260/113 263/260/61 262/259/60
f 263/260/61 319/260/113 304/209/72
f 304/209/72 248/209/19 263/260/61
f 248/209/19 304/209/72 303/210/71
f 303/210/71 247/210/20 248/209/19
f 303/210/71 302/211/73 246/211/21
f 246/211/21 247/210/20 303/210/71
f 302/211/73 301/221/74 245/221/22
f 245/221/22 246/211/21 302/211/73
f 301/221/74 300/222/75 244/222/23
f 244/222/23 245/221/22 301/221/74
f 300/222/75 299/223/76 243/223/24
f 243/223/24 244/222/23 300/222/75
f 299/223/76 298/224/77 242/224/25
f 242/224/25 243/223/24 299/223/76
f 298/224/77 297/225/78 241/225/26
f 241/225/26 242/224/25 298/224/77
f 297/225/78 296/227/80 240/227/28
f 240/227/28 241/225/26 297/225/78
f 296/227/80 295/228/81 239/228/29
f 239/228/29 240/227/28 296/227/80
f 295/228/81 294/229/82 238/229/30
f 238/229/30 239/228/29 295/228/81
f 294/229/82 293/231/84 237/231/32
f 237/231/32 238/229/30 294/229/82
f 293/231/84 292/232/85 236/232/33
f 236/232/33 237/231/32 293/231/84
f 292/232/85 291/234/87 235/234/35
f 235/234/35 236/232/33 292/232/85
f 291/234/87 290/235/88 234/235/36
f 234/235/36 235/234/35 291/234/87
f 290/235/88 289/236/89 233/236/37
f 233/236/37 234/235/36 290/235/88
f 289/236/89 288/238/91 232/238/39
f 232/238/39 233/236/37 289/236/89
f 288/238/91 231/239/40 232/238/39
f 231/239/40 288/238/91 287/239/92
f 287/239/92 286/240/93 230/240/41
f 230/240/41 231/239/40 287/239/92
f 286/240/93 285/241/94 229/241/42
f 229/241/42 230/240/41 286/240/93
f 285/241/94 284/242/95 228/242/43
f 228/242/43 229/241/42 285/241/94
f 284/242/95 283/243/96 227/243/44
f 227/243/44 228/242/43 284/242/95
f 283/243/96 282/244/97 226/244/45
f 226/244/45 227/243/44 283/243/96
f 282/244/97 281/245/98 225/245/46
f 225/245/46 226/244/45 282/244/97
f 281/245/98 280/246/99 224/246/47
f 224/246/47 225/245/46 281/245/98
f 280/246/99 279/247/100 223/247/48
f 223/247/48 224/246/47 280/246/99
f 279/247/100 278/248/101 222/248/49
f 222/248/49 223/247/48 279/247/100
f 278/248/101 277/249/102 221/249/50
f 222/248/49 278/248/101 221/249/50
f 220/250/51 221/249/50 277/249/102
f 277/249/102 276/250/103 220/250/51
f 276/250/103 275/251/104 219/251/52
f 219/251/52 220/250/51 276/250/103
f 275/251/104 274/252/105 218/252/53
f 218/252/53 219/251/52 275/251/104
f 274/252/105 273/253/106 217/253/54
f 217/253/54 218/252/53 274/252/105
f 273/253/106 272/254/107 216/254/55
f 216/254/55 217/253/54 273/253/106
f 216/254/55 272/254/107 271/255/108
f 271/255/108 215/255/56 216/254/55
f 271/255/108 270/256/109 214/256/57
f 214/256/57 215/255/56 271/255/108
f 270/256/109 269/257/110 213/257/58
f 213/257/58 214/256/57 270/256/109
f 268/271/111 315/262/65 307/261/64
f 268/271/111 307/261/64 306/266/70
f 250/219/17 251/212/10 259/215/13
f 259/215/13 212/258/59 250/219/17
f 320/272/114 249/220/18 250/219/17
f 212/258/59 213/257/58 321/273/115
f 354/274/116 355/275/117 360/276/118
f 355/275/117 356/277/118 359/278/118
f 359/278/118 360/276/118 355/275/117
f 356/277/118 357/279/118 358/280/118
f 358/280/118 359/278/118 356/277/118
f 354/274/116 352/281/119 353/282/120
f 353/282/120 355/275/117 354/274/116
f 352/281/119 350/283/121 351/284/122
f 351/284/122 353/282/120 352/281/119
f 350/283/121 348/285/123 349/286/124
f 349/286/124 351/284/122 350/283/121
f 348/285/123 346/287/125 347/288/126
f 347/288/126 349/286/124 348/285/123
f 346/287/125 344/289/127 345/290/128
f 345/290/128 347/288/126 346/287/125
f 344/289/127 343/291/129 342/292/130
f 342/292/130 345/290/128 344/289/127
f 343/291/129 249/220/18 342/292/130
f 342/292/130 249/220/18 320/272/114
f 213/257/58 323/293/131 321/273/115
f 323/293/131 322/294/132 321/273/115
f 323/293/131 324/295/133 325/296/134
f 325/296/134 322/294/132 323/293/131
f 324/295/133 326/297/135 327/298/136
f 327/298/136 325/296/134 324/295/133
f 326/297/135 328/299/137 329/300/138
f 329/300/138 327/298/136 326/297/135
f 328/299/137 330/301/139 331/302/140
f 331/302/140 329/300/138 328/299/137
f 330/301/139 332/303/141 333/304/142
f 333/304/142 331/302/140 330/301/139
f 332/303/141 334/305/143 335/306/144
f 335/306/144 333/304/142 332/303/141
f 334/305/143 336/307/145 337/308/146
f 337/308/146 335/306/144 334/305/143
f 336/307/145 341/309/118 337/308/146
f 341/309/118 340/310/118 339/311/118
f 339/311/118 338/312/118 341/309/118
f 338/312/118 337/308/146 341/309/118
f 264/1/147 216/254/55 265/2/148
f 265/2/148 216/254/55 267/60/149
f 267/60/149 216/254/55 217/253/54
f 217/253/54 266/61/150 267/60/149
f 217/253/54 218/252/53 266/61/150
# 250 triangles in group

# 476 triangles total

